Coordinates
version=1
nRows=16
nColumns=40
inDegrees=yes

Units are S.I. units (second, meters, Newtons, ...)
Angles are in degrees.

endheader
time	pelvis_tilt	pelvis_list	pelvis_rotation	pelvis_tx	pelvis_ty	pelvis_tz	hip_flexion_r	hip_adduction_r	hip_rotation_r	knee_angle_r	knee_angle_r_beta	ankle_angle_r	subtalar_angle_r	mtp_angle_r	hip_flexion_l	hip_adduction_l	hip_rotation_l	knee_angle_l	knee_angle_l_beta	ankle_angle_l	subtalar_angle_l	mtp_angle_l	lumbar_extension	lumbar_bending	lumbar_rotation	arm_flex_r	arm_add_r	arm_rot_r	elbow_flex_r	pro_sup_r	wrist_flex_r	wrist_dev_r	arm_flex_l	arm_add_l	arm_rot_l	elbow_flex_l	pro_sup_l	wrist_flex_l	wrist_dev_l
     56.40228571	     -4.25387875	     -7.24813147	      4.50980634	      1.03908564	      0.91428016	      0.48706897	     -1.85870858	      6.95543207	    -15.62650609	      9.87582894	      9.87582894	     18.22495600	      4.36611919	     -3.80358378	     34.55945685	     -8.74167675	     -2.13629133	     20.67742864	     20.67742864	      5.85201703	     -8.58352190	     10.87500807	     -9.49089282	      7.59871318	      3.66094213	     51.10373887	    -16.05385816	      4.70021353	     99.53839579	     44.06968806	      0.00000000	      0.00000000	    -21.10844233	    -10.98622500	     24.48110726	     35.23161784	     43.47233089	      0.00000000	      0.00000000
     56.41457143	     -4.40976159	     -7.11700464	      4.49805768	      1.04099136	      0.91275274	      0.48488746	     -2.14678515	      6.63090319	    -15.49555150	     10.34434891	     10.34434891	     19.01110905	      4.20957905	     -3.08980719	     34.04087918	     -8.43296098	     -2.69394213	     20.56046181	     20.56046181	      3.90047477	     -9.42871372	      8.69906355	     -9.07173505	      7.49134935	      3.73652735	     50.94619213	    -16.14807464	      4.13734910	    102.04264282	     44.03984997	      0.00000000	      0.00000000	    -21.74498949	    -11.13699430	     25.01601582	     35.86688025	     43.44282053	      0.00000000	      0.00000000
     56.42685714	     -4.45484080	     -6.92520037	      4.51137363	      1.04302801	      0.91152334	      0.48257627	     -2.60397950	      6.24686444	    -15.42267120	     10.76916102	     10.76916102	     19.99562346	      4.29539600	     -1.53309901	     33.32566924	     -8.06965695	     -3.09573112	     20.32314049	     20.32314049	      0.93467798	    -10.76734074	      3.86409709	     -8.76514556	      7.25692272	      4.08842829	     50.59233659	    -16.64229231	      3.33214090	    104.13897626	     44.10947546	      0.00000000	      0.00000000	    -21.82088559	    -11.58473332	     26.90489070	     36.23776340	     43.38885631	      0.00000000	      0.00000000
     56.43914286	     -4.56803881	     -6.73301548	      4.56226272	      1.04470598	      0.91059687	      0.48014627	     -3.03482321	      5.88408273	    -15.33471117	     10.96319233	     10.96319233	     20.24998908	      4.14360003	     -1.58279510	     33.03712345	     -7.76219162	     -3.48967548	     20.82651491	     20.82651491	      0.33419286	    -10.99041663	      3.97450196	     -8.37836645	      7.07781553	      3.83748340	     50.63193031	    -16.62951045	      3.28689478	    104.52700534	     44.10130268	      0.00000000	      0.00000000	    -21.99789178	    -11.49677051	     26.96184803	     36.21326143	     43.38425027	      0.00000000	      0.00000000
     56.45142857	     -4.60866933	     -6.31270058	      4.59296777	      1.04631542	      0.90994691	      0.47750181	     -3.35163062	      5.19978437	    -15.17482255	     11.57389635	     11.57389635	     20.57905657	      3.77387491	     -1.64486307	     32.78863259	     -7.23362079	     -3.68888626	     21.63992562	     21.63992562	      0.00816283	    -11.51485801	      3.79993318	     -8.20577032	      6.59892142	      3.32302282	     50.40626785	    -16.40408270	      3.26419720	    105.53506882	     44.07379525	      0.00000000	      0.00000000	    -22.10535832	    -11.39811299	     27.02823534	     36.20099638	     43.38247570	      0.00000000	      0.00000000
     56.46371429	     -4.93542719	     -6.03701136	      4.60560268	      1.04732863	      0.90913592	      0.47484651	     -2.78163724	      4.51333122	    -14.95915670	     13.20966098	     13.20966098	     21.09674789	      2.90515201	     -1.68429057	     32.79709662	     -6.73535842	     -3.43179824	     22.17422409	     22.17422409	     -0.46323152	    -12.48744509	      3.28692472	     -7.87520282	      6.38165430	      3.08077345	     49.65162218	    -16.17160429	      2.84599330	    108.57392980	     44.00615819	      0.00000000	      0.00000000	    -21.92405684	    -11.35429738	     27.00884678	     36.27124574	     43.41497953	      0.00000000	      0.00000000
     56.47600000	     -5.05405073	     -5.70789578	      4.61993504	      1.04840487	      0.90911385	      0.47216255	     -2.63593241	      3.83604351	    -14.74791705	     14.43650184	     14.43650184	     21.29670802	      2.27237050	     -1.59886467	     32.61298311	     -6.25105771	     -3.27289356	     22.81367889	     22.81367889	     -0.53846063	    -13.18331583	      2.71405956	     -7.76363640	      6.01381672	      3.35306022	     48.48741442	    -16.75709022	      2.03836164	    110.69556035	     43.98316365	      0.00000000	      0.00000000	    -21.21612195	    -11.46332390	     26.93800933	     36.18837042	     43.46583173	      0.00000000	      0.00000000
     56.48828571	     -5.10846924	     -5.39951932	      4.63650153	      1.04943906	      0.90950571	      0.46943964	     -2.49300496	      3.17069671	    -14.57216132	     15.75802510	     15.75802510	     21.34085928	      1.64575700	     -1.74971166	     32.36355835	     -5.81940498	     -3.15867099	     23.46525194	     23.46525194	     -0.14789421	    -13.55912955	      2.32973712	     -7.68793153	      5.70117623	      3.36586890	     47.35624465	    -17.01518414	      1.49042639	    112.09320641	     43.97107338	      0.00000000	      0.00000000	    -20.40572564	    -11.47344786	     26.96446753	     35.98655250	     43.50063212	      0.00000000	      0.00000000
     56.50057143	     -5.15221937	     -5.12788788	      4.63679600	      1.05027730	      0.91024634	      0.46674234	     -2.16400576	      2.49681376	    -14.39614990	     17.39703316	     17.39703316	     21.16520956	      0.88566595	     -2.15231490	     32.07442415	     -5.43140701	     -3.03555693	     24.03160400	     24.03160400	      0.47767302	    -13.82038860	      2.13104926	     -7.67146467	      5.43180600	      3.39199888	     46.01818250	    -17.28812816	      0.95030281	    113.28249936	     43.96461754	      0.00000000	      0.00000000	    -19.39400521	    -11.52151553	     26.96389334	     35.71897024	     43.54093946	      0.00000000	      0.00000000
     56.51285714	     -4.89117238	     -5.03975385	      4.71863686	      1.05130340	      0.91179446	      0.46408789	     -2.32028511	      2.09579603	    -14.43992982	     18.69057484	     18.69057484	     20.70537490	      0.44095613	     -2.31440097	     31.39797921	     -5.22284342	     -2.78934806	     24.46321490	     24.46321490	      1.26185125	    -13.97518396	      1.81105518	     -7.93259776	      5.37988613	      2.96137621	     44.85596673	    -17.18036798	      1.00438289	    113.38822897	     43.95811147	      0.00000000	      0.00000000	    -18.42000414	    -11.51046687	     26.89898103	     35.84038594	     43.56659314	      0.00000000	      0.00000000
     56.52514286	     -5.19164947	     -4.68098273	      4.49821275	      1.05167016	      0.91256775	      0.46175512	     -1.07594285	      1.19474510	    -13.92232248	     21.33379173	     21.33379173	     19.28161346	     -1.38736487	     -5.83481470	     31.28703053	     -4.84673962	     -3.05170852	     24.91221245	     24.91221245	      2.54593020	    -13.83070817	      2.81164672	     -7.70127785	      4.91477299	      4.04920469	     42.34756249	    -18.13516882	     -0.83000985	    115.76492456	     44.05318277	      0.00000000	      0.00000000	    -16.33683846	    -11.57207621	     27.54280096	     34.24868400	     43.68641380	      0.00000000	      0.00000000
     56.53742857	     -5.21811910	     -4.50131084	      4.36106779	      1.05214270	      0.91393694	      0.45945497	     -0.08860676	      0.47972040	    -13.75019622	     24.09107957	     24.09107957	     18.50099595	     -2.45065265	     -6.58426743	     30.73185642	     -4.63995122	     -3.21985723	     25.00865887	     25.00865887	      3.31482074	    -13.73875330	      2.47739432	     -7.67575904	      4.70910137	      3.84138210	     40.76657962	    -18.07799177	     -0.83984306	    115.73665090	     44.06041842	      0.00000000	      0.00000000	    -15.19130607	    -11.68288316	     27.36041772	     34.39107681	     43.74380602	      0.00000000	      0.00000000
     56.54971429	     -5.15888319	     -4.28981426	      4.15963705	      1.05262831	      0.91549125	      0.45737487	      1.00023213	     -0.29360798	    -13.54486718	     27.15766528	     27.15766528	     17.49482058	     -3.60321423	     -7.35066360	     30.01072860	     -4.45358941	     -3.54194828	     25.00216389	     25.00216389	      4.05083638	    -13.59214176	      2.14662681	     -7.76312896	      4.43816399	      3.66087912	     38.96169529	    -17.91735935	     -0.75177494	    115.50512623	     44.06436182	      0.00000000	      0.00000000	    -13.92109903	    -11.84451842	     27.12706672	     34.50041350	     43.80096575	      0.00000000	      0.00000000
     56.56200000	     -5.20432326	     -4.13489075	      3.93061159	      1.05284388	      0.91687517	      0.45550797	      2.47381199	     -1.02655018	    -13.27628269	     30.59975460	     30.59975460	     16.14623465	     -5.08282697	     -8.27856318	     29.34223085	     -4.33101549	     -3.90214990	     24.83716581	     24.83716581	      4.71461937	    -13.31133625	      1.80218733	     -7.70930787	      4.19359451	      3.56905423	     37.05021497	    -17.86735507	     -0.77953431	    115.14787900	     44.07620136	      0.00000000	      0.00000000	    -12.51369930	    -12.00859281	     26.80913598	     34.56416863	     43.87155165	      0.00000000	      0.00000000
     56.57428571	     -5.22470598	     -3.97767660	      3.67971761	      1.05294974	      0.91820764	      0.45382857	      4.10544975	     -1.75711417	    -12.96129660	     34.26634490	     34.26634490	     14.53250133	     -6.75664425	     -9.16192729	     28.61684578	     -4.22816372	     -4.33895943	     24.61118724	     24.61118724	      5.33294895	    -12.96305486	      1.40610781	     -7.70233761	      3.94859199	      3.49993314	     34.99387074	    -17.76669680	     -0.78144556	    114.60058252	     44.09213101	      0.00000000	      0.00000000	    -10.99355849	    -12.20984558	     26.42882761	     34.61865772	     43.95084012	      0.00000000	      0.00000000
     56.58657143	     -5.18504041	     -3.79342593	      3.43013659	      1.05293581	      0.91951321	      0.45226963	      5.82378656	     -2.52111339	    -12.68296739	     38.08531893	     38.08531893	     12.77429500	     -8.48843834	     -9.74023912	     27.82560949	     -4.11393598	     -4.85183876	     24.36734684	     24.36734684	      5.86420071	    -12.58680807	      0.99237077	     -7.76713308	      3.69949804	      3.36917204	     32.89311642	    -17.56044618	     -0.66382223	    113.85671747	     44.10838650	      0.00000000	      0.00000000	     -9.37204322	    -12.46269094	     26.03111642	     34.73470716	     44.03084812	      0.00000000	      0.00000000
